<svg width="26" height="22" viewBox="0 0 26 22" fill="none" xmlns="http://www.w3.org/2000/svg">
<path d="M9.12109 17.0312L13.8086 0H19.6875L12.5586 21.1328H9.00391L9.12109 17.0312ZM5.89844 0L10.6055 17.0508L10.7031 21.1328H7.12891L0 0H5.89844ZM19.3398 18.418C19.3398 17.5846 19.6263 16.888 20.1992 16.3281C20.7852 15.7682 21.5599 15.4883 22.5234 15.4883C23.487 15.4883 24.2552 15.7682 24.8281 16.3281C25.4141 16.888 25.707 17.5846 25.707 18.418C25.707 19.2513 25.4141 19.9479 24.8281 20.5078C24.2552 21.0677 23.487 21.3477 22.5234 21.3477C21.5599 21.3477 20.7852 21.0677 20.1992 20.5078C19.6263 19.9479 19.3398 19.2513 19.3398 18.418Z" fill="white"/>
</svg>
